<?xml version="1.0" standalone="no"?>
<!DOCTYPE svg PUBLIC "-//W3C//DTD SVG 20010904//EN"
 "http://www.w3.org/TR/2001/REC-SVG-20010904/DTD/svg10.dtd">
<svg version="1.0" xmlns="http://www.w3.org/2000/svg"
 width="2000.000000pt" height="1500.000000pt" viewBox="0 0 2000.000000 1500.000000"
 preserveAspectRatio="xMidYMid meet">

<g transform="translate(0.000000,1500.000000) scale(0.100000,-0.100000)"
fill="#000000" stroke="none">
<path d="M6840 12461 c0 -43 -2 -42 118 -57 49 -6 52 -8 52 -35 l0 -28 -362
-3 -363 -3 -34 -24 c-50 -36 -71 -90 -71 -191 0 -59 5 -92 14 -106 17 -23 117
-71 186 -89 l45 -11 3 -622 2 -622 -39 0 c-22 0 -97 18 -167 40 -173 55 -250
68 -299 49 -21 -8 -47 -27 -59 -42 -21 -28 -21 -38 -24 -524 l-3 -495 35 -33
c42 -39 172 -93 321 -131 l110 -29 3405 0 c3875 0 3472 -10 3675 91 260 128
496 394 676 759 96 194 106 266 48 324 -56 56 -182 64 -484 31 -99 -11 -223
-23 -276 -27 l-96 -6 -79 -110 -79 -110 -3 106 -3 107 -454 0 -455 0 0 -165 0
-165 -45 0 -45 0 0 165 0 165 -455 0 -455 0 0 -165 0 -165 -45 0 -45 0 0 165
0 165 -455 0 -455 0 0 -165 0 -165 -45 0 -45 0 0 165 0 165 -455 0 -455 0 0
-165 0 -165 -45 0 -45 0 0 165 0 165 -540 0 -540 0 -1 -112 c-1 -122 1 -124
-41 35 l-20 77 -94 0 -94 0 0 500 0 500 -85 0 -86 0 3 83 3 82 82 3 82 3 3 35
c3 35 5 37 73 58 85 27 112 41 148 74 25 24 27 32 27 100 0 47 -6 86 -16 108
-22 46 -85 100 -131 113 -24 7 -177 11 -405 11 l-368 0 0 29 0 28 123 12 c231
22 217 19 217 57 l0 34 -295 0 -295 0 0 -39z m420 -706 l0 -85 -290 0 -290 0
0 85 0 85 290 0 290 0 0 -85z m270 0 l0 -85 -85 0 -85 0 0 78 c0 43 3 82 7 85
3 4 42 7 85 7 l78 0 0 -85z m5356 -1530 c15 -59 187 -55 -2255 -53 l-2236 3
-3 23 c-2 13 -1 30 2 38 5 12 314 14 2245 14 l2241 0 6 -25z"/>
<path d="M8010 11500 l0 -250 540 0 540 0 0 250 0 250 -540 0 -540 0 0 -250z"/>
<path d="M9180 11500 l0 -250 455 0 455 0 0 250 0 250 -455 0 -455 0 0 -250z"/>
<path d="M10180 11500 l0 -250 455 0 455 0 0 250 0 250 -455 0 -455 0 0 -250z"/>
<path d="M11180 11500 l0 -250 468 2 467 3 6 95 c4 52 10 164 14 248 l7 152
-481 0 -481 0 0 -250z"/>
<path d="M8010 10960 l0 -210 540 0 540 0 0 210 0 210 -540 0 -540 0 0 -210z"/>
<path d="M9180 10960 l0 -210 455 0 455 0 0 210 0 210 -455 0 -455 0 0 -210z"/>
<path d="M10180 10960 l0 -210 455 0 455 0 0 210 0 210 -455 0 -455 0 0 -210z"/>
<path d="M11180 10960 l0 -210 455 0 455 0 0 210 0 210 -455 0 -455 0 0 -210z"/>
<path d="M12180 10960 l0 -210 455 0 455 0 0 210 0 210 -455 0 -455 0 0 -210z"/>
<path d="M3325 8551 c-58 -27 -75 -63 -75 -159 0 -66 4 -85 23 -113 12 -18 34
-39 47 -46 37 -19 13313 -19 13350 0 13 7 35 28 47 46 19 28 23 47 23 114 0
97 -20 137 -80 161 -37 15 -614 16 -6668 16 -6415 0 -6628 -1 -6667 -19z"/>
<path d="M3313 7720 c-48 -29 -63 -67 -63 -156 0 -94 20 -134 80 -158 37 -15
614 -16 6665 -16 6051 0 6628 1 6665 16 60 24 80 64 80 160 0 90 -19 132 -69
159 -27 13 -696 15 -6678 15 -6576 0 -6648 0 -6680 -20z"/>
<path d="M10788 6435 c-319 -54 -531 -247 -609 -557 -18 -70 -22 -123 -26
-335 l-5 -253 -244 0 -244 0 0 -155 0 -155 245 0 245 0 0 -1225 0 -1225 185 0
185 0 0 1225 0 1225 420 0 420 0 0 155 0 155 -425 0 -425 0 0 218 c0 185 3
231 20 296 48 187 152 287 344 328 29 6 99 8 166 5 133 -6 229 -33 316 -91
l54 -36 13 28 c8 15 36 76 62 135 55 123 59 110 -50 171 -161 91 -425 128
-647 91z"/>
<path d="M15012 6407 c-44 -14 -118 -81 -143 -129 -103 -202 99 -430 322 -365
183 54 249 277 125 424 -45 53 -118 83 -200 82 -39 -1 -86 -6 -104 -12z"/>
<path d="M16340 4475 l0 -1945 185 0 185 0 0 1945 0 1945 -185 0 -185 0 0
-1945z"/>
<path d="M3280 4366 l0 -1836 190 0 190 0 0 579 0 578 608 7 c334 3 625 9 647
12 l40 5 419 -590 420 -591 209 0 209 0 -35 48 c-154 212 -858 1205 -855 1207
2 1 47 21 100 42 389 160 626 437 711 833 25 117 30 411 8 530 -94 526 -466
865 -1076 982 -105 20 -145 22 -947 25 l-838 4 0 -1835z m1738 1476 c347 -78
556 -225 672 -475 47 -100 66 -172 81 -302 24 -214 -19 -445 -112 -602 -44
-73 -158 -195 -229 -243 -124 -84 -267 -140 -450 -176 -72 -14 -177 -18 -702
-21 l-618 -4 0 926 0 926 633 -4 c599 -3 637 -5 725 -25z"/>
<path d="M7747 5300 c-301 -32 -604 -137 -813 -282 -119 -82 -117 -65 -28
-214 43 -71 79 -131 80 -133 2 -2 37 22 78 52 443 323 1141 358 1439 73 137
-132 197 -314 197 -597 l0 -119 -515 0 c-297 0 -557 -5 -613 -11 -297 -32
-500 -119 -640 -275 -252 -279 -239 -749 27 -1015 71 -71 186 -147 285 -188
285 -119 720 -121 1014 -5 160 63 339 200 414 316 17 26 35 48 40 48 4 0 8
-94 8 -210 l0 -210 176 0 176 0 -5 943 c-5 1010 -4 1000 -57 1177 -104 347
-374 569 -773 635 -114 19 -373 27 -490 15z m953 -1722 l0 -233 -48 -87 c-96
-177 -206 -284 -377 -369 -141 -70 -227 -89 -415 -96 -243 -8 -402 28 -542
123 -146 99 -220 259 -204 441 20 217 138 350 368 413 123 33 196 37 716 39
l502 1 0 -232z"/>
<path d="M12640 5303 c-376 -36 -665 -134 -903 -308 l-76 -56 81 -132 c44 -73
82 -134 84 -136 1 -2 29 17 61 41 219 167 491 261 798 275 207 9 359 -17 503
-88 150 -73 255 -196 307 -361 28 -87 48 -265 43 -378 l-3 -75 -570 -6 c-616
-6 -659 -9 -837 -65 -293 -92 -479 -295 -529 -578 -17 -98 -7 -273 21 -361 98
-313 378 -514 785 -564 275 -34 555 7 770 113 150 74 236 148 352 302 l22 29
0 -212 1 -213 175 0 175 0 0 913 c0 570 -4 944 -10 997 -63 514 -376 803 -929
859 -96 10 -241 12 -321 4z m900 -1719 l0 -226 -36 -70 c-132 -264 -334 -418
-624 -478 -91 -19 -128 -21 -270 -17 -141 4 -178 8 -255 31 -121 37 -198 80
-270 151 -93 93 -135 199 -135 343 0 269 181 438 513 481 34 5 290 9 570 10
l507 1 0 -226z"/>
<path d="M14930 3910 l0 -1380 180 0 180 0 0 1380 0 1380 -180 0 -180 0 0
-1380z"/>
</g>
</svg>
